STARTFONT 2.1
FONT -B&H-Lucida Sans-Bold-R-Normal-Sans-8-80-72-72-P-50-ISO8859-1
SIZE 8 72 72
FONTBOUNDINGBOX 15 10 -5 -2

STARTPROPERTIES 22
FONTNAME_REGISTRY "-"
FOUNDRY "B&H"
FAMILY_NAME "Lucida Sans"
WEIGHT_NAME "Bold"
SLANT "R"
SETWIDTH_NAME "Normal"
ADD_STYLE_NAME "Sans"
PIXEL_SIZE 8
POINT_SIZE 80
RESOLUTION_X 72
RESOLUTION_Y 72
SPACING "P"
CHARSET_REGISTRY "ISO8859"
CHARSET_ENCODING "1"
FULL_NAME "LucidaSans-Bold"
AVERAGE_WIDTH 50
WEIGHT 10
X_HEIGHT 4
QUAD_WIDTH 5
DEFAULT_CHAR 32
FONT_DESCENT 2
FONT_ASCENT 8
ENDPROPERTIES

CHARS 190

STARTCHAR space
ENCODING 32
SWIDTH 343 0
DWIDTH 3 0
BBX 1 1 0 0
BITMAP
00
ENDCHAR

STARTCHAR exclam
ENCODING 33
SWIDTH 265 0
DWIDTH 3 0
BBX 2 6 0 0
BITMAP
C0
C0
C0
40
00
C0
ENDCHAR

STARTCHAR quotedbl
ENCODING 34
SWIDTH 530 0
DWIDTH 4 0
BBX 4 3 0 3
BITMAP
F0
F0
A0
ENDCHAR

STARTCHAR numbersign
ENCODING 35
SWIDTH 687 0
DWIDTH 5 0
BBX 5 6 0 0
BITMAP
38
30
F8
50
F8
E0
ENDCHAR

STARTCHAR dollar
ENCODING 36
SWIDTH 687 0
DWIDTH 5 0
BBX 3 8 1 -1
BITMAP
40
E0
C0
C0
60
60
E0
40
ENDCHAR

STARTCHAR percent
ENCODING 37
SWIDTH 898 0
DWIDTH 7 0
BBX 7 6 0 0
BITMAP
E4
A8
F0
1E
2A
4E
ENDCHAR

STARTCHAR ampersand
ENCODING 38
SWIDTH 792 0
DWIDTH 6 0
BBX 6 6 0 0
BITMAP
78
68
74
DC
C8
7C
ENDCHAR

STARTCHAR quoteright
ENCODING 39
SWIDTH 265 0
DWIDTH 2 0
BBX 2 3 0 3
BITMAP
C0
C0
C0
ENDCHAR

STARTCHAR parenleft
ENCODING 40
SWIDTH 386 0
DWIDTH 3 0
BBX 3 8 0 -2
BITMAP
20
60
C0
C0
C0
C0
60
20
ENDCHAR

STARTCHAR parenright
ENCODING 41
SWIDTH 386 0
DWIDTH 3 0
BBX 3 8 0 -2
BITMAP
80
C0
60
60
60
60
C0
80
ENDCHAR

STARTCHAR asterisk
ENCODING 42
SWIDTH 464 0
DWIDTH 4 0
BBX 3 3 0 3
BITMAP
40
A0
E0
ENDCHAR

STARTCHAR plus
ENCODING 43
SWIDTH 687 0
DWIDTH 5 0
BBX 5 5 0 0
BITMAP
20
20
F8
20
20
ENDCHAR

STARTCHAR comma
ENCODING 44
SWIDTH 343 0
DWIDTH 3 0
BBX 2 3 0 -2
BITMAP
C0
40
C0
ENDCHAR

STARTCHAR minus
ENCODING 45
SWIDTH 687 0
DWIDTH 5 0
BBX 5 1 0 2
BITMAP
F8
ENDCHAR

STARTCHAR period
ENCODING 46
SWIDTH 343 0
DWIDTH 3 0
BBX 2 2 0 0
BITMAP
C0
C0
ENDCHAR

STARTCHAR slash
ENCODING 47
SWIDTH 596 0
DWIDTH 5 0
BBX 5 8 0 -2
BITMAP
18
10
30
20
20
40
40
80
ENDCHAR

STARTCHAR zero
ENCODING 48
SWIDTH 687 0
DWIDTH 5 0
BBX 5 6 0 0
BITMAP
70
D8
D8
D8
D8
70
ENDCHAR

STARTCHAR one
ENCODING 49
SWIDTH 687 0
DWIDTH 5 0
BBX 3 6 1 0
BITMAP
E0
60
60
60
60
60
ENDCHAR

STARTCHAR two
ENCODING 50
SWIDTH 687 0
DWIDTH 5 0
BBX 5 6 0 0
BITMAP
F0
18
18
30
40
F8
ENDCHAR

STARTCHAR three
ENCODING 51
SWIDTH 687 0
DWIDTH 5 0
BBX 5 6 0 0
BITMAP
78
18
78
18
18
F0
ENDCHAR

STARTCHAR four
ENCODING 52
SWIDTH 687 0
DWIDTH 5 0
BBX 6 6 0 0
BITMAP
18
38
58
D8
FC
18
ENDCHAR

STARTCHAR five
ENCODING 53
SWIDTH 687 0
DWIDTH 5 0
BBX 4 6 1 0
BITMAP
F0
80
E0
30
30
E0
ENDCHAR

STARTCHAR six
ENCODING 54
SWIDTH 687 0
DWIDTH 5 0
BBX 5 6 0 0
BITMAP
78
C0
F0
D8
D8
70
ENDCHAR

STARTCHAR seven
ENCODING 55
SWIDTH 687 0
DWIDTH 5 0
BBX 4 6 1 0
BITMAP
F0
10
20
60
C0
C0
ENDCHAR

STARTCHAR eight
ENCODING 56
SWIDTH 687 0
DWIDTH 5 0
BBX 5 6 0 0
BITMAP
78
48
70
58
C8
70
ENDCHAR

STARTCHAR nine
ENCODING 57
SWIDTH 687 0
DWIDTH 5 0
BBX 5 6 0 0
BITMAP
70
D8
D8
78
18
F0
ENDCHAR

STARTCHAR colon
ENCODING 58
SWIDTH 343 0
DWIDTH 3 0
BBX 2 4 0 0
BITMAP
C0
C0
C0
C0
ENDCHAR

STARTCHAR semicolon
ENCODING 59
SWIDTH 343 0
DWIDTH 3 0
BBX 2 6 0 -2
BITMAP
C0
C0
00
C0
40
C0
ENDCHAR

STARTCHAR less
ENCODING 60
SWIDTH 687 0
DWIDTH 5 0
BBX 5 4 0 0
BITMAP
18
F0
70
18
ENDCHAR

STARTCHAR equal
ENCODING 61
SWIDTH 687 0
DWIDTH 5 0
BBX 5 3 0 1
BITMAP
F8
00
F8
ENDCHAR

STARTCHAR greater
ENCODING 62
SWIDTH 687 0
DWIDTH 5 0
BBX 5 4 0 0
BITMAP
C0
70
78
C0
ENDCHAR

STARTCHAR question
ENCODING 63
SWIDTH 572 0
DWIDTH 5 0
BBX 5 6 0 0
BITMAP
F8
38
30
60
00
60
ENDCHAR

STARTCHAR at
ENCODING 64
SWIDTH 833 0
DWIDTH 7 0
BBX 7 6 0 0
BITMAP
3C
46
9A
BA
FC
78
ENDCHAR

STARTCHAR A
ENCODING 65
SWIDTH 773 0
DWIDTH 6 0
BBX 6 6 0 0
BITMAP
30
30
58
58
7C
8C
ENDCHAR

STARTCHAR B
ENCODING 66
SWIDTH 669 0
DWIDTH 5 0
BBX 5 6 0 0
BITMAP
F8
D8
F0
D8
D8
F8
ENDCHAR

STARTCHAR C
ENCODING 67
SWIDTH 726 0
DWIDTH 6 0
BBX 6 6 0 0
BITMAP
7C
E0
C0
C0
E0
7C
ENDCHAR

STARTCHAR D
ENCODING 68
SWIDTH 819 0
DWIDTH 7 0
BBX 6 6 0 0
BITMAP
F8
CC
CC
CC
CC
F8
ENDCHAR

STARTCHAR E
ENCODING 69
SWIDTH 645 0
DWIDTH 5 0
BBX 5 6 0 0
BITMAP
F0
C0
F0
C0
C0
F8
ENDCHAR

STARTCHAR F
ENCODING 70
SWIDTH 602 0
DWIDTH 5 0
BBX 4 6 1 0
BITMAP
F0
C0
F0
C0
C0
C0
ENDCHAR

STARTCHAR G
ENCODING 71
SWIDTH 759 0
DWIDTH 6 0
BBX 6 6 0 0
BITMAP
7C
E0
C0
CC
CC
7C
ENDCHAR

STARTCHAR H
ENCODING 72
SWIDTH 813 0
DWIDTH 7 0
BBX 6 6 0 0
BITMAP
CC
CC
FC
CC
CC
CC
ENDCHAR

STARTCHAR I
ENCODING 73
SWIDTH 361 0
DWIDTH 3 0
BBX 2 6 0 0
BITMAP
C0
C0
C0
C0
C0
C0
ENDCHAR

STARTCHAR J
ENCODING 74
SWIDTH 501 0
DWIDTH 4 0
BBX 4 8 0 -2
BITMAP
30
30
30
30
30
30
30
E0
ENDCHAR

STARTCHAR K
ENCODING 75
SWIDTH 753 0
DWIDTH 6 0
BBX 5 6 1 0
BITMAP
D8
D0
E0
F0
F0
D8
ENDCHAR

STARTCHAR L
ENCODING 76
SWIDTH 620 0
DWIDTH 5 0
BBX 5 6 0 0
BITMAP
C0
C0
C0
C0
C0
F8
ENDCHAR

STARTCHAR M
ENCODING 77
SWIDTH 940 0
DWIDTH 8 0
BBX 6 6 1 0
BITMAP
CC
DC
FC
FC
BC
AC
ENDCHAR

STARTCHAR N
ENCODING 78
SWIDTH 783 0
DWIDTH 6 0
BBX 5 6 1 0
BITMAP
C8
C8
E8
F8
B8
98
ENDCHAR

STARTCHAR O
ENCODING 79
SWIDTH 855 0
DWIDTH 7 0
BBX 7 6 0 0
BITMAP
7C
C6
C6
C6
C6
7C
ENDCHAR

STARTCHAR P
ENCODING 80
SWIDTH 657 0
DWIDTH 5 0
BBX 5 6 0 0
BITMAP
F8
D8
D8
F0
C0
C0
ENDCHAR

STARTCHAR Q
ENCODING 81
SWIDTH 855 0
DWIDTH 7 0
BBX 8 8 0 -2
BITMAP
7C
C6
C6
C6
C6
78
0F
06
ENDCHAR

STARTCHAR R
ENCODING 82
SWIDTH 734 0
DWIDTH 6 0
BBX 6 6 0 0
BITMAP
F8
D8
D8
F0
D8
CC
ENDCHAR

STARTCHAR S
ENCODING 83
SWIDTH 594 0
DWIDTH 5 0
BBX 4 6 0 0
BITMAP
70
C0
E0
70
30
E0
ENDCHAR

STARTCHAR T
ENCODING 84
SWIDTH 735 0
DWIDTH 6 0
BBX 6 6 0 0
BITMAP
FC
30
30
30
30
30
ENDCHAR

STARTCHAR U
ENCODING 85
SWIDTH 783 0
DWIDTH 6 0
BBX 5 6 1 0
BITMAP
D8
D8
D8
D8
D8
70
ENDCHAR

STARTCHAR V
ENCODING 86
SWIDTH 735 0
DWIDTH 6 0
BBX 6 6 0 0
BITMAP
C4
C8
68
70
70
30
ENDCHAR

STARTCHAR W
ENCODING 87
SWIDTH 940 0
DWIDTH 8 0
BBX 7 6 0 0
BITMAP
DA
DA
DA
6C
6C
6C
ENDCHAR

STARTCHAR X
ENCODING 88
SWIDTH 699 0
DWIDTH 6 0
BBX 5 6 0 0
BITMAP
C8
70
70
30
78
98
ENDCHAR

STARTCHAR Y
ENCODING 89
SWIDTH 738 0
DWIDTH 6 0
BBX 6 6 0 0
BITMAP
C4
68
70
30
30
30
ENDCHAR

STARTCHAR Z
ENCODING 90
SWIDTH 675 0
DWIDTH 5 0
BBX 5 6 0 0
BITMAP
F8
18
30
60
C0
F8
ENDCHAR

STARTCHAR bracketleft
ENCODING 91
SWIDTH 386 0
DWIDTH 3 0
BBX 2 8 1 -2
BITMAP
C0
80
80
80
80
80
80
C0
ENDCHAR

STARTCHAR backslash
ENCODING 92
SWIDTH 596 0
DWIDTH 5 0
BBX 5 8 0 -2
BITMAP
80
40
40
20
20
30
10
18
ENDCHAR

STARTCHAR bracketright
ENCODING 93
SWIDTH 386 0
DWIDTH 3 0
BBX 2 8 0 -2
BITMAP
C0
40
40
40
40
40
40
C0
ENDCHAR

STARTCHAR asciicircum
ENCODING 94
SWIDTH 687 0
DWIDTH 5 0
BBX 5 5 0 1
BITMAP
20
20
50
50
88
ENDCHAR

STARTCHAR underscore
ENCODING 95
SWIDTH 500 0
DWIDTH 4 0
BBX 4 1 0 -2
BITMAP
F0
ENDCHAR

STARTCHAR quoteleft
ENCODING 96
SWIDTH 265 0
DWIDTH 2 0
BBX 2 3 0 3
BITMAP
C0
C0
C0
ENDCHAR

STARTCHAR a
ENCODING 97
SWIDTH 623 0
DWIDTH 5 0
BBX 5 4 0 0
BITMAP
F8
78
D8
F8
ENDCHAR

STARTCHAR b
ENCODING 98
SWIDTH 696 0
DWIDTH 6 0
BBX 5 7 0 0
BITMAP
C0
C0
C0
F8
D8
D8
F0
ENDCHAR

STARTCHAR c
ENCODING 99
SWIDTH 545 0
DWIDTH 4 0
BBX 4 4 0 0
BITMAP
70
C0
C0
70
ENDCHAR

STARTCHAR d
ENCODING 100
SWIDTH 696 0
DWIDTH 6 0
BBX 5 7 0 0
BITMAP
18
18
18
78
D8
D8
F8
ENDCHAR

STARTCHAR e
ENCODING 101
SWIDTH 614 0
DWIDTH 5 0
BBX 5 4 0 0
BITMAP
78
F8
C0
78
ENDCHAR

STARTCHAR f
ENCODING 102
SWIDTH 461 0
DWIDTH 4 0
BBX 4 7 0 0
BITMAP
30
60
60
F0
60
60
60
ENDCHAR

STARTCHAR g
ENCODING 103
SWIDTH 696 0
DWIDTH 6 0
BBX 5 6 0 -2
BITMAP
78
D8
D8
F8
18
F0
ENDCHAR

STARTCHAR h
ENCODING 104
SWIDTH 693 0
DWIDTH 6 0
BBX 5 7 0 0
BITMAP
C0
C0
C0
F8
D8
D8
D8
ENDCHAR

STARTCHAR i
ENCODING 105
SWIDTH 361 0
DWIDTH 3 0
BBX 2 7 0 0
BITMAP
C0
00
00
C0
C0
C0
C0
ENDCHAR

STARTCHAR j
ENCODING 106
SWIDTH 361 0
DWIDTH 3 0
BBX 3 9 0 -2
BITMAP
60
00
00
60
60
60
60
60
E0
ENDCHAR

STARTCHAR k
ENCODING 107
SWIDTH 681 0
DWIDTH 5 0
BBX 5 7 1 0
BITMAP
C0
C0
C0
D0
F0
F0
D8
ENDCHAR

STARTCHAR l
ENCODING 108
SWIDTH 361 0
DWIDTH 3 0
BBX 2 7 0 0
BITMAP
C0
C0
C0
C0
C0
C0
C0
ENDCHAR

STARTCHAR m
ENCODING 109
SWIDTH 1006 0
DWIDTH 8 0
BBX 8 4 0 0
BITMAP
FF
DB
DB
DB
ENDCHAR

STARTCHAR n
ENCODING 110
SWIDTH 693 0
DWIDTH 6 0
BBX 5 4 0 0
BITMAP
F8
D8
D8
D8
ENDCHAR

STARTCHAR o
ENCODING 111
SWIDTH 675 0
DWIDTH 5 0
BBX 5 4 0 0
BITMAP
70
D8
D8
70
ENDCHAR

STARTCHAR p
ENCODING 112
SWIDTH 696 0
DWIDTH 6 0
BBX 5 6 0 -2
BITMAP
F8
D8
D8
F0
C0
C0
ENDCHAR

STARTCHAR q
ENCODING 113
SWIDTH 696 0
DWIDTH 6 0
BBX 5 6 0 -2
BITMAP
78
D8
D8
F8
18
18
ENDCHAR

STARTCHAR r
ENCODING 114
SWIDTH 500 0
DWIDTH 4 0
BBX 4 4 0 0
BITMAP
F0
C0
C0
C0
ENDCHAR

STARTCHAR s
ENCODING 115
SWIDTH 622 0
DWIDTH 5 0
BBX 3 4 1 0
BITMAP
E0
80
60
E0
ENDCHAR

STARTCHAR t
ENCODING 116
SWIDTH 436 0
DWIDTH 3 0
BBX 3 5 0 0
BITMAP
C0
E0
C0
C0
E0
ENDCHAR

STARTCHAR u
ENCODING 117
SWIDTH 693 0
DWIDTH 6 0
BBX 5 4 0 0
BITMAP
D8
D8
D8
F8
ENDCHAR

STARTCHAR v
ENCODING 118
SWIDTH 663 0
DWIDTH 5 0
BBX 5 4 0 0
BITMAP
C8
D0
70
70
ENDCHAR

STARTCHAR w
ENCODING 119
SWIDTH 885 0
DWIDTH 7 0
BBX 7 4 0 0
BITMAP
D6
FC
6C
6C
ENDCHAR

STARTCHAR x
ENCODING 120
SWIDTH 568 0
DWIDTH 5 0
BBX 4 4 0 0
BITMAP
D0
60
60
F0
ENDCHAR

STARTCHAR y
ENCODING 121
SWIDTH 645 0
DWIDTH 5 0
BBX 5 6 0 -2
BITMAP
C8
D0
70
60
60
40
ENDCHAR

STARTCHAR z
ENCODING 122
SWIDTH 608 0
DWIDTH 5 0
BBX 4 4 0 0
BITMAP
F0
60
60
F0
ENDCHAR

STARTCHAR braceleft
ENCODING 123
SWIDTH 386 0
DWIDTH 3 0
BBX 2 8 1 -2
BITMAP
C0
C0
C0
C0
C0
C0
C0
C0
ENDCHAR

STARTCHAR bar
ENCODING 124
SWIDTH 265 0
DWIDTH 2 0
BBX 1 8 1 -2
BITMAP
80
80
80
80
80
80
80
80
ENDCHAR

STARTCHAR braceright
ENCODING 125
SWIDTH 386 0
DWIDTH 3 0
BBX 2 8 1 -2
BITMAP
C0
C0
C0
C0
C0
C0
C0
C0
ENDCHAR

STARTCHAR asciitilde
ENCODING 126
SWIDTH 687 0
DWIDTH 5 0
BBX 5 2 0 1
BITMAP
E8
B8
ENDCHAR

STARTCHAR exclamdown
ENCODING 161
SWIDTH 265 0
DWIDTH 3 0
BBX 2 6 0 -2
BITMAP
C0
00
40
C0
C0
C0
ENDCHAR

STARTCHAR cent
ENCODING 162
SWIDTH 687 0
DWIDTH 5 0
BBX 4 6 1 0
BITMAP
20
70
E0
E0
70
20
ENDCHAR

STARTCHAR sterling
ENCODING 163
SWIDTH 687 0
DWIDTH 5 0
BBX 5 6 0 0
BITMAP
78
60
F0
60
60
F8
ENDCHAR

STARTCHAR currency
ENCODING 164
SWIDTH 687 0
DWIDTH 5 0
BBX 5 5 0 0
BITMAP
88
70
50
70
88
ENDCHAR

STARTCHAR yen
ENCODING 165
SWIDTH 687 0
DWIDTH 5 0
BBX 6 6 0 0
BITMAP
CC
68
30
78
78
30
ENDCHAR

STARTCHAR brokenbar
ENCODING 166
SWIDTH 265 0
DWIDTH 2 0
BBX 1 8 1 -2
BITMAP
80
80
80
80
00
00
80
80
ENDCHAR

STARTCHAR section
ENCODING 167
SWIDTH 693 0
DWIDTH 5 0
BBX 4 8 1 -2
BITMAP
F0
C0
60
F0
F0
70
30
F0
ENDCHAR

STARTCHAR dieresis
ENCODING 168
SWIDTH 675 0
DWIDTH 5 0
BBX 3 1 1 5
BITMAP
A0
ENDCHAR

STARTCHAR copyright
ENCODING 169
SWIDTH 825 0
DWIDTH 7 0
BBX 6 6 0 0
BITMAP
78
CC
BC
A4
FC
78
ENDCHAR

STARTCHAR ordfeminine
ENCODING 170
SWIDTH 536 0
DWIDTH 4 0
BBX 3 4 1 2
BITMAP
E0
20
E0
E0
ENDCHAR

STARTCHAR guillemotleft
ENCODING 171
SWIDTH 614 0
DWIDTH 5 0
BBX 5 4 0 0
BITMAP
28
D0
50
28
ENDCHAR

STARTCHAR logicalnot
ENCODING 172
SWIDTH 687 0
DWIDTH 5 0
BBX 5 3 0 1
BITMAP
F8
08
08
ENDCHAR

STARTCHAR hyphen
ENCODING 173
SWIDTH 289 0
DWIDTH 2 0
BBX 2 1 0 2
BITMAP
C0
ENDCHAR

STARTCHAR registered
ENCODING 174
SWIDTH 687 0
DWIDTH 5 0
BBX 5 4 0 2
BITMAP
70
B8
B8
70
ENDCHAR

STARTCHAR macron
ENCODING 175
SWIDTH 675 0
DWIDTH 5 0
BBX 3 1 1 5
BITMAP
E0
ENDCHAR

STARTCHAR degree
ENCODING 176
SWIDTH 241 0
DWIDTH 2 0
BBX 2 2 0 4
BITMAP
C0
C0
ENDCHAR

STARTCHAR plusminus
ENCODING 177
SWIDTH 687 0
DWIDTH 5 0
BBX 5 4 0 0
BITMAP
20
F8
20
F8
ENDCHAR

STARTCHAR twosuperior
ENCODING 178
SWIDTH 536 0
DWIDTH 3 0
BBX 3 4 -5 2
BITMAP
E0
20
40
E0
ENDCHAR

STARTCHAR threesuperior
ENCODING 179
SWIDTH 536 0
DWIDTH 3 0
BBX 2 4 -5 2
BITMAP
C0
C0
40
C0
ENDCHAR

STARTCHAR acute
ENCODING 180
SWIDTH 675 0
DWIDTH 5 0
BBX 2 1 2 5
BITMAP
C0
ENDCHAR

STARTCHAR mu
ENCODING 181
SWIDTH 699 0
DWIDTH 6 0
BBX 5 6 0 -2
BITMAP
D8
D8
D8
F8
C0
C0
ENDCHAR

STARTCHAR paragraph
ENCODING 182
SWIDTH 693 0
DWIDTH 5 0
BBX 3 8 1 -2
BITMAP
E0
E0
E0
60
60
60
60
60
ENDCHAR

STARTCHAR periodcentered
ENCODING 183
SWIDTH 343 0
DWIDTH 5 0
BBX 1 1 2 2
BITMAP
80
ENDCHAR

STARTCHAR cedilla
ENCODING 184
SWIDTH 675 0
DWIDTH 5 0
BBX 1 1 2 -2
BITMAP
80
ENDCHAR

STARTCHAR onesuperior
ENCODING 185
SWIDTH 536 0
DWIDTH 3 0
BBX 2 4 -5 2
BITMAP
C0
40
40
40
ENDCHAR

STARTCHAR ordmasculine
ENCODING 186
SWIDTH 536 0
DWIDTH 4 0
BBX 4 3 0 3
BITMAP
F0
90
F0
ENDCHAR

STARTCHAR guillemotright
ENCODING 187
SWIDTH 614 0
DWIDTH 5 0
BBX 5 4 0 0
BITMAP
A0
50
58
A0
ENDCHAR

STARTCHAR onequarter
ENCODING 188
SWIDTH 1066 0
DWIDTH 7 0
BBX 6 6 1 0
BITMAP
CC
58
5C
7C
5C
C4
ENDCHAR

STARTCHAR onehalf
ENCODING 189
SWIDTH 1066 0
DWIDTH 7 0
BBX 6 6 1 0
BITMAP
CC
58
5C
64
48
DC
ENDCHAR

STARTCHAR threequarters
ENCODING 190
SWIDTH 1120 0
DWIDTH 7 0
BBX 6 6 1 0
BITMAP
CC
D8
5C
FC
5C
C4
ENDCHAR

STARTCHAR questiondown
ENCODING 191
SWIDTH 572 0
DWIDTH 5 0
BBX 5 6 0 -2
BITMAP
30
00
30
60
E0
78
ENDCHAR

STARTCHAR Agrave
ENCODING 192
SWIDTH 773 0
DWIDTH 6 0
BBX 6 7 0 0
BITMAP
30
30
30
58
58
7C
8C
ENDCHAR

STARTCHAR Aacute
ENCODING 193
SWIDTH 773 0
DWIDTH 6 0
BBX 6 7 0 0
BITMAP
30
30
30
58
58
7C
8C
ENDCHAR

STARTCHAR Acircumflex
ENCODING 194
SWIDTH 773 0
DWIDTH 6 0
BBX 6 8 0 0
BITMAP
10
28
30
30
58
58
7C
8C
ENDCHAR

STARTCHAR Atilde
ENCODING 195
SWIDTH 773 0
DWIDTH 6 0
BBX 6 7 0 0
BITMAP
38
30
30
58
58
7C
8C
ENDCHAR

STARTCHAR Adieresis
ENCODING 196
SWIDTH 773 0
DWIDTH 6 0
BBX 6 7 0 0
BITMAP
28
30
30
58
58
7C
8C
ENDCHAR

STARTCHAR Aring
ENCODING 197
SWIDTH 773 0
DWIDTH 6 0
BBX 6 7 0 0
BITMAP
50
30
30
58
58
7C
8C
ENDCHAR

STARTCHAR AE
ENCODING 198
SWIDTH 997 0
DWIDTH 8 0
BBX 8 6 0 0
BITMAP
1E
38
3E
58
78
9F
ENDCHAR

STARTCHAR Ccedilla
ENCODING 199
SWIDTH 726 0
DWIDTH 6 0
BBX 6 7 0 -1
BITMAP
7C
E0
C0
C0
E0
7C
10
ENDCHAR

STARTCHAR Egrave
ENCODING 200
SWIDTH 645 0
DWIDTH 5 0
BBX 5 7 0 0
BITMAP
20
F0
C0
F0
C0
C0
F8
ENDCHAR

STARTCHAR Eacute
ENCODING 201
SWIDTH 645 0
DWIDTH 5 0
BBX 5 7 0 0
BITMAP
20
F0
C0
F0
C0
C0
F8
ENDCHAR

STARTCHAR Ecircumflex
ENCODING 202
SWIDTH 645 0
DWIDTH 5 0
BBX 5 8 0 0
BITMAP
20
50
F0
C0
F0
C0
C0
F8
ENDCHAR

STARTCHAR Edieresis
ENCODING 203
SWIDTH 645 0
DWIDTH 5 0
BBX 5 7 0 0
BITMAP
50
F0
C0
F0
C0
C0
F8
ENDCHAR

STARTCHAR Igrave
ENCODING 204
SWIDTH 361 0
DWIDTH 3 0
BBX 2 7 0 0
BITMAP
C0
C0
C0
C0
C0
C0
C0
ENDCHAR

STARTCHAR Iacute
ENCODING 205
SWIDTH 361 0
DWIDTH 3 0
BBX 2 7 0 0
BITMAP
C0
C0
C0
C0
C0
C0
C0
ENDCHAR

STARTCHAR Icircumflex
ENCODING 206
SWIDTH 361 0
DWIDTH 3 0
BBX 3 8 0 0
BITMAP
40
A0
C0
C0
C0
C0
C0
C0
ENDCHAR

STARTCHAR Idieresis
ENCODING 207
SWIDTH 361 0
DWIDTH 3 0
BBX 3 7 0 0
BITMAP
A0
C0
C0
C0
C0
C0
C0
ENDCHAR

STARTCHAR Eth
ENCODING 208
SWIDTH 819 0
DWIDTH 7 0
BBX 7 6 0 0
BITMAP
7C
66
F6
66
66
7C
ENDCHAR

STARTCHAR Ntilde
ENCODING 209
SWIDTH 783 0
DWIDTH 6 0
BBX 5 7 1 0
BITMAP
70
C8
C8
E8
F8
B8
98
ENDCHAR

STARTCHAR Ograve
ENCODING 210
SWIDTH 855 0
DWIDTH 7 0
BBX 7 7 0 0
BITMAP
10
7C
C6
C6
C6
C6
7C
ENDCHAR

STARTCHAR Oacute
ENCODING 211
SWIDTH 855 0
DWIDTH 7 0
BBX 7 7 0 0
BITMAP
10
7C
C6
C6
C6
C6
7C
ENDCHAR

STARTCHAR Ocircumflex
ENCODING 212
SWIDTH 855 0
DWIDTH 7 0
BBX 7 8 0 0
BITMAP
10
28
7C
C6
C6
C6
C6
7C
ENDCHAR

STARTCHAR Otilde
ENCODING 213
SWIDTH 855 0
DWIDTH 7 0
BBX 7 7 0 0
BITMAP
38
7C
C6
C6
C6
C6
7C
ENDCHAR

STARTCHAR Odieresis
ENCODING 214
SWIDTH 855 0
DWIDTH 7 0
BBX 7 7 0 0
BITMAP
28
7C
C6
C6
C6
C6
7C
ENDCHAR

STARTCHAR multiply
ENCODING 215
SWIDTH 687 0
DWIDTH 5 0
BBX 5 5 0 0
BITMAP
90
58
20
50
98
ENDCHAR

STARTCHAR Oslash
ENCODING 216
SWIDTH 855 0
DWIDTH 7 0
BBX 7 6 0 0
BITMAP
7E
C6
CE
D6
F6
7C
ENDCHAR

STARTCHAR Ugrave
ENCODING 217
SWIDTH 783 0
DWIDTH 6 0
BBX 5 7 1 0
BITMAP
60
D8
D8
D8
D8
D8
70
ENDCHAR

STARTCHAR Uacute
ENCODING 218
SWIDTH 783 0
DWIDTH 6 0
BBX 5 7 1 0
BITMAP
30
D8
D8
D8
D8
D8
70
ENDCHAR

STARTCHAR Ucircumflex
ENCODING 219
SWIDTH 783 0
DWIDTH 6 0
BBX 5 8 1 0
BITMAP
20
50
D8
D8
D8
D8
D8
70
ENDCHAR

STARTCHAR Udieresis
ENCODING 220
SWIDTH 783 0
DWIDTH 6 0
BBX 5 7 1 0
BITMAP
50
D8
D8
D8
D8
D8
70
ENDCHAR

STARTCHAR Yacute
ENCODING 221
SWIDTH 738 0
DWIDTH 6 0
BBX 6 7 0 0
BITMAP
30
C4
68
70
30
30
30
ENDCHAR

STARTCHAR Thorn
ENCODING 222
SWIDTH 657 0
DWIDTH 5 0
BBX 5 6 0 0
BITMAP
C0
C0
F8
D8
F0
C0
ENDCHAR

STARTCHAR germandbls
ENCODING 223
SWIDTH 724 0
DWIDTH 6 0
BBX 6 7 0 0
BITMAP
78
D8
F0
F0
DC
CC
FC
ENDCHAR

STARTCHAR agrave
ENCODING 224
SWIDTH 623 0
DWIDTH 5 0
BBX 5 5 0 0
BITMAP
20
F8
78
D8
F8
ENDCHAR

STARTCHAR aacute
ENCODING 225
SWIDTH 623 0
DWIDTH 5 0
BBX 5 5 0 0
BITMAP
20
F8
78
D8
F8
ENDCHAR

STARTCHAR acircumflex
ENCODING 226
SWIDTH 623 0
DWIDTH 5 0
BBX 5 6 0 0
BITMAP
20
50
F8
78
D8
F8
ENDCHAR

STARTCHAR atilde
ENCODING 227
SWIDTH 623 0
DWIDTH 5 0
BBX 5 5 0 0
BITMAP
70
F8
78
D8
F8
ENDCHAR

STARTCHAR adieresis
ENCODING 228
SWIDTH 623 0
DWIDTH 5 0
BBX 5 5 0 0
BITMAP
50
F8
78
D8
F8
ENDCHAR

STARTCHAR aring
ENCODING 229
SWIDTH 623 0
DWIDTH 5 0
BBX 5 5 0 0
BITMAP
50
F8
78
D8
F8
ENDCHAR

STARTCHAR ae
ENCODING 230
SWIDTH 913 0
DWIDTH 7 0
BBX 8 4 0 0
BITMAP
FE
7F
D8
EF
ENDCHAR

STARTCHAR ccedilla
ENCODING 231
SWIDTH 545 0
DWIDTH 4 0
BBX 4 5 0 -1
BITMAP
70
C0
C0
70
20
ENDCHAR

STARTCHAR egrave
ENCODING 232
SWIDTH 614 0
DWIDTH 5 0
BBX 5 5 0 0
BITMAP
20
78
F8
C0
78
ENDCHAR

STARTCHAR eacute
ENCODING 233
SWIDTH 614 0
DWIDTH 5 0
BBX 5 5 0 0
BITMAP
20
78
F8
C0
78
ENDCHAR

STARTCHAR ecircumflex
ENCODING 234
SWIDTH 614 0
DWIDTH 5 0
BBX 5 6 0 0
BITMAP
20
50
78
F8
C0
78
ENDCHAR

STARTCHAR edieresis
ENCODING 235
SWIDTH 614 0
DWIDTH 5 0
BBX 5 5 0 0
BITMAP
50
78
F8
C0
78
ENDCHAR

STARTCHAR igrave
ENCODING 236
SWIDTH 361 0
DWIDTH 3 0
BBX 2 5 0 0
BITMAP
C0
C0
C0
C0
C0
ENDCHAR

STARTCHAR iacute
ENCODING 237
SWIDTH 361 0
DWIDTH 3 0
BBX 2 5 0 0
BITMAP
C0
C0
C0
C0
C0
ENDCHAR

STARTCHAR icircumflex
ENCODING 238
SWIDTH 361 0
DWIDTH 3 0
BBX 3 6 0 0
BITMAP
40
A0
C0
C0
C0
C0
ENDCHAR

STARTCHAR idieresis
ENCODING 239
SWIDTH 361 0
DWIDTH 3 0
BBX 3 5 0 0
BITMAP
A0
C0
C0
C0
C0
ENDCHAR

STARTCHAR eth
ENCODING 240
SWIDTH 675 0
DWIDTH 5 0
BBX 5 7 0 0
BITMAP
10
E0
B0
78
D8
D8
70
ENDCHAR

STARTCHAR ntilde
ENCODING 241
SWIDTH 693 0
DWIDTH 6 0
BBX 5 5 0 0
BITMAP
70
F8
D8
D8
D8
ENDCHAR

STARTCHAR ograve
ENCODING 242
SWIDTH 675 0
DWIDTH 5 0
BBX 5 5 0 0
BITMAP
20
70
D8
D8
70
ENDCHAR

STARTCHAR oacute
ENCODING 243
SWIDTH 675 0
DWIDTH 5 0
BBX 5 5 0 0
BITMAP
20
70
D8
D8
70
ENDCHAR

STARTCHAR ocircumflex
ENCODING 244
SWIDTH 675 0
DWIDTH 5 0
BBX 5 6 0 0
BITMAP
20
50
70
D8
D8
70
ENDCHAR

STARTCHAR otilde
ENCODING 245
SWIDTH 675 0
DWIDTH 5 0
BBX 5 5 0 0
BITMAP
70
70
D8
D8
70
ENDCHAR

STARTCHAR odieresis
ENCODING 246
SWIDTH 675 0
DWIDTH 5 0
BBX 5 5 0 0
BITMAP
50
70
D8
D8
70
ENDCHAR

STARTCHAR divide
ENCODING 247
SWIDTH 687 0
DWIDTH 5 0
BBX 5 5 0 0
BITMAP
20
00
F8
00
20
ENDCHAR

STARTCHAR oslash
ENCODING 248
SWIDTH 675 0
DWIDTH 5 0
BBX 5 4 0 0
BITMAP
78
F8
F8
F0
ENDCHAR

STARTCHAR ugrave
ENCODING 249
SWIDTH 693 0
DWIDTH 6 0
BBX 5 5 0 0
BITMAP
60
D8
D8
D8
F8
ENDCHAR

STARTCHAR uacute
ENCODING 250
SWIDTH 693 0
DWIDTH 6 0
BBX 5 5 0 0
BITMAP
30
D8
D8
D8
F8
ENDCHAR

STARTCHAR ucircumflex
ENCODING 251
SWIDTH 693 0
DWIDTH 6 0
BBX 5 6 0 0
BITMAP
20
50
D8
D8
D8
F8
ENDCHAR

STARTCHAR udieresis
ENCODING 252
SWIDTH 693 0
DWIDTH 6 0
BBX 5 5 0 0
BITMAP
50
D8
D8
D8
F8
ENDCHAR

STARTCHAR yacute
ENCODING 253
SWIDTH 645 0
DWIDTH 5 0
BBX 5 7 0 -2
BITMAP
30
C8
D0
70
60
60
40
ENDCHAR

STARTCHAR thorn
ENCODING 254
SWIDTH 696 0
DWIDTH 6 0
BBX 5 7 0 -2
BITMAP
C0
F8
D8
D8
F0
C0
C0
ENDCHAR

STARTCHAR ydieresis
ENCODING 255
SWIDTH 645 0
DWIDTH 5 0
BBX 5 7 0 -2
BITMAP
50
C8
D0
70
60
60
40
ENDCHAR
ENDFONT
